# xmcd
#
# Track frame offsets:
#	150
#	12839
#	23431
#	37332
#	51650
#	65306
#	78716
#	93063
#	103397
#	118120
#	129833
#	145161
#
# Disc length: 2086 seconds
#
# Revision: 1
# Processed by: cddbd v1.5.2PL0 Copyright (c) Steve Scherf et al.
# Submitted via: EasyCDDAExtractor 16.0.6.1
#
DISCID=a108240c
DTITLE=Συλλογικός δίσκος - Τριάντα χρόνια χελιδόνια 1960-1990 Λ. Παπαδόπουλος 
DTITLE=2
DYEAR=2009
DGENRE=Ποικίλη
TTITLE0=Διονυσίου Στράτος - Βρέχει φωτιά στην στράτα μου [1979]
TTITLE1=Βοσκόπουλος Τόλης - Το φεγγάρι πάνω Θεέ μου [1970]
TTITLE2=Μητσιάς Μανώλης-Γκίκα Βούλα - Αυτά τα χέρια [1970]
TTITLE3=Κόκοτας Σταμάτης - Ο τρελλός [1970]
TTITLE4=Μοσχολιού Βίκυ - Ξύπνησε η πόλη [1970]
TTITLE5=Μοσχολιού Βίκυ - Τα χέρια [1970]
TTITLE6=Καζαντζίδης Στέλιος - Δεν θα ξαναγαπήσω [1970]
TTITLE7=Πουλόπουλος Γιάννης - Με την Ντάμα, με τον Ρήγα [1977]
TTITLE8=Κόκοτας Σταμάτης - Δεν το μπορείς [1972]
TTITLE9=Κόκοτας Σταμάτης - Μιά βραδιά του Μαγιού [1973]
TTITLE10=Κόκοτας Σταμάτης - Ήσουνα παιδί [1973]
TTITLE11=Μητσιάς Μανώλης - Πίκρα σταλάζει η Κυριακή [1975]
EXTD=
EXTT0=
EXTT1=
EXTT2=
EXTT3=
EXTT4=
EXTT5=
EXTT6=
EXTT7=
EXTT8=
EXTT9=
EXTT10=
EXTT11=
PLAYORDER=
